<svg xmlns="http://www.w3.org/2000/svg" version="1.1" xmlns:xlink="http://www.w3.org/1999/xlink" xmlns:svgjs="http://svgjs.dev/svgjs" width="1440" height="560" preserveAspectRatio="none" viewBox="0 0 1440 560"><g mask="url(&quot;#SvgjsMask1931&quot;)" fill="none"><rect width="1440" height="560" x="0" y="0" fill="url(&quot;#SvgjsLinearGradient1932&quot;)"></rect><path d="M1440 0L828.5 0L1440 12.69z" fill="rgba(255, 255, 255, .1)"></path><path d="M828.5 0L1440 12.69L1440 197.43L734.29 0z" fill="rgba(255, 255, 255, .075)"></path><path d="M734.29 0L1440 197.43L1440 415.86L523.72 0z" fill="rgba(255, 255, 255, .05)"></path><path d="M523.72 0L1440 415.86L1440 515.05L272.24 0z" fill="rgba(255, 255, 255, .025)"></path><path d="M0 560L62.04 560L0 331.56z" fill="rgba(0, 0, 0, .1)"></path><path d="M0 331.56L62.04 560L817 560L0 262.43z" fill="rgba(0, 0, 0, .075)"></path><path d="M0 262.43L817 560L1120.59 560L0 221.67000000000002z" fill="rgba(0, 0, 0, .05)"></path><path d="M0 221.67000000000002L1120.59 560L1252.1599999999999 560L0 158.51000000000002z" fill="rgba(0, 0, 0, .025)"></path></g><defs><mask id="SvgjsMask1931"><rect width="1440" height="560" fill="#ffffff"></rect></mask><linearGradient x1="15.28%" y1="-39.29%" x2="84.72%" y2="139.29%" gradientUnits="userSpaceOnUse" id="SvgjsLinearGradient1932"><stop stop-color="#0e2a47" offset="0"></stop><stop stop-color="rgba(137, 144, 235, 1)" offset="1"></stop></linearGradient></defs></svg>